<svg xmlns="http://www.w3.org/2000/svg" width="203.398" height="39.982" viewBox="0 0 203.398 39.982">
  <g id="Group_2617" data-name="Group 2617" transform="translate(-304.385 469.658)">
    <path id="Path_12464" data-name="Path 12464" d="M326.587-457.965c0,6.516-4.537,10.475-10.505,10.475-6.7,0-11.51-4.933-11.51-11.053a11.054,11.054,0,0,1,11.175-11.114,10.9,10.9,0,0,1,9.317,4.872l-4.141,2.375a6.1,6.1,0,0,0-5.207-2.5,6.128,6.128,0,0,0-6.273,6.395c0,3.624,2.558,6.273,6.7,6.273,2.832,0,4.689-1.249,5.451-3.289H315.9v-4.263h10.688Z" transform="translate(-0.141 0)" fill="#141414"/>
    <path id="Path_12465" data-name="Path 12465" d="M410.7-457.866h3.654a2.581,2.581,0,0,0,2.436-2.74,2.581,2.581,0,0,0-2.436-2.741H410.7Zm2.314,4.263H410.7v7h-4.872v-21.315h8.526a7.29,7.29,0,0,1,7.308,7.308,7.025,7.025,0,0,1-3.928,6.181l4.537,7.826h-5.237Z" transform="translate(-76.647 -1.317)" fill="#141414"/>
    <path id="Path_12466" data-name="Path 12466" d="M495.833-451.288v4.689h-13.4v-21.315h13.246v4.689h-8.374v3.532h7.613v4.629h-7.613v3.776Z" transform="translate(-134.522 -1.318)" fill="#141414"/>
    <path id="Path_12467" data-name="Path 12467" d="M561.847-451.288v4.689h-13.4v-21.315H561.7v4.689h-8.374v3.532h7.612v4.629h-7.612v3.776Z" transform="translate(-184.399 -1.318)" fill="#141414"/>
    <path id="Path_12468" data-name="Path 12468" d="M631.212-467.914V-446.6h-3.654l-8.221-11.571V-446.6h-4.872v-21.315h3.654l8.221,11.571v-11.571Z" transform="translate(-234.275 -1.317)" fill="#141414"/>
    <path id="Path_12469" data-name="Path 12469" d="M712.723-467.914V-446.6h-4.872v-8.465h-6.7v8.465H696.28v-21.315h4.872v8.161h6.7v-8.161Z" transform="translate(-296.089 -1.317)" fill="#141414"/>
    <path id="Path_12470" data-name="Path 12470" d="M791.884-451.288v4.689h-13.4v-21.315h13.246v4.689h-8.374v3.532h7.612v4.629h-7.612v3.776Z" transform="translate(-358.199 -1.318)" fill="#141414"/>
    <path id="Path_12471" data-name="Path 12471" d="M851.122-454.517l-2.5-7.826-2.5,7.826Zm1.462,4.567h-7.917L843.6-446.6h-5.329l7.247-21.315h6.212l7.247,21.315h-5.329Z" transform="translate(-403.369 -1.317)" fill="#141414"/>
    <path id="Path_12472" data-name="Path 12472" d="M935.315-457.866h3.654a2.581,2.581,0,0,0,2.436-2.74,2.581,2.581,0,0,0-2.436-2.741h-3.654Zm2.314,4.263h-2.314v7h-4.872v-21.315h8.526a7.291,7.291,0,0,1,7.308,7.308,7.025,7.025,0,0,1-3.928,6.181l4.537,7.826h-5.237Z" transform="translate(-473.007 -1.317)" fill="#141414"/>
    <path id="Path_12473" data-name="Path 12473" d="M1014.781-463.225H1009.3V-446.6h-4.872v-16.626h-5.481v-4.689h15.834Z" transform="translate(-524.764 -1.317)" fill="#141414"/>
    <path id="Path_12474" data-name="Path 12474" d="M311.583-344.828v.84h-6.437v-11.764h.891v10.924Z" transform="translate(-0.575 -86.06)" fill="#141414"/>
    <path id="Path_12475" data-name="Path 12475" d="M311.194-344.376h-6.809v-12.137h1.263v10.924h5.546Zm-6.436-.372h6.064v-.468h-5.546v-10.924h-.518Z" transform="translate(0 -85.485)" fill="#141414"/>
    <path id="Path_12476" data-name="Path 12476" d="M345.811-344.828v.84h-6.773v-11.764h6.689v.84h-5.8v4.571h5.378v.84h-5.378v4.672Z" transform="translate(-26.181 -86.06)" fill="#141414"/>
    <path id="Path_12477" data-name="Path 12477" d="M345.422-344.376h-7.145v-12.137h7.061v1.213h-5.8v4.2h5.378v1.213H339.54v4.3h5.882Zm-6.773-.372h6.4v-.468h-5.882v-5.044h5.378v-.468h-5.378v-4.943h5.8v-.468h-6.317Z" transform="translate(-25.607 -85.485)" fill="#141414"/>
    <path id="Path_12478" data-name="Path 12478" d="M379.081-347.818l-2.621-6.84-2.622,6.84Zm.319.84h-5.9l-1.143,2.992h-.941l4.571-11.764h.941l4.554,11.764h-.941Z" transform="translate(-50.645 -86.061)" fill="#141414"/>
    <path id="Path_12479" data-name="Path 12479" d="M380.915-344.376h-1.34l-1.143-2.992h-5.643l-1.143,2.992H370.3l4.716-12.136h1.2Zm-1.084-.372h.541l-4.41-11.392h-.687l-4.427,11.392h.541l1.143-2.992h6.155Zm-1.32-3.46h-5.785l2.893-7.546Zm-5.243-.372h4.7l-2.351-6.134Z" transform="translate(-49.805 -85.485)" fill="#141414"/>
    <path id="Path_12480" data-name="Path 12480" d="M420.5-349.651h3.748a2.607,2.607,0,0,0,2.588-2.622,2.611,2.611,0,0,0-2.588-2.639H420.5Zm3.714.84H420.5v4.823h-.891v-11.764h4.639a3.486,3.486,0,0,1,3.479,3.479,3.475,3.475,0,0,1-2.588,3.345l2.924,4.941h-1.025Z" transform="translate(-87.055 -86.06)" fill="#141414"/>
    <path id="Path_12481" data-name="Path 12481" d="M427.814-344.376h-1.458l-2.824-4.823h-3.421v4.823h-1.263v-12.137h4.825a3.669,3.669,0,0,1,3.665,3.665,3.667,3.667,0,0,1-2.494,3.454Zm-1.244-.372h.592l-2.883-4.871.236-.064a3.3,3.3,0,0,0,2.451-3.165,3.3,3.3,0,0,0-3.292-3.293H419.22v11.392h.519v-4.823h4.007Zm-2.9-5.291h-3.934v-5.633h3.934a2.8,2.8,0,0,1,2.774,2.825A2.794,2.794,0,0,1,423.673-350.04Zm-3.562-.372h3.562a2.422,2.422,0,0,0,2.4-2.436,2.43,2.43,0,0,0-2.4-2.452h-3.562Z" transform="translate(-86.48 -85.485)" fill="#141414"/>
    <path id="Path_12482" data-name="Path 12482" d="M470.372-355.752v11.764h-.79L462.641-354.1v10.117h-.891v-11.764h.773l6.958,10.117v-10.117Z" transform="translate(-118.895 -86.06)" fill="#141414"/>
    <path id="Path_12483" data-name="Path 12483" d="M469.983-344.376h-1.074l-6.657-9.7v9.7h-1.263v-12.137h1.057l6.674,9.7v-9.7h1.263Zm-.878-.372h.506v-11.392h-.519v10.53l-7.242-10.53h-.489v11.392h.518V-355.28Z" transform="translate(-118.319 -85.485)" fill="#141414"/>
    <rect id="Rectangle_840" data-name="Rectangle 840" width="0.891" height="11.764" transform="translate(354.402 -441.811)" fill="#141414"/>
    <path id="Path_12484" data-name="Path 12484" d="M509.482-344.376h-1.263v-12.136h1.263Zm-.891-.372h.519V-356.14h-.519Z" transform="translate(-154.003 -85.485)" fill="#141414"/>
    <path id="Path_12485" data-name="Path 12485" d="M533.207-355.752v11.764h-.79L525.476-354.1v10.117h-.891v-11.764h.773l6.958,10.117v-10.117Z" transform="translate(-166.368 -86.06)" fill="#141414"/>
    <path id="Path_12486" data-name="Path 12486" d="M532.818-344.376h-1.074l-6.657-9.7v9.7h-1.263v-12.137h1.057l6.674,9.7v-9.7h1.263Zm-.878-.372h.506v-11.392h-.519v10.53l-7.241-10.53H524.2v11.392h.519V-355.28Z" transform="translate(-165.793 -85.485)" fill="#141414"/>
    <path id="Path_12487" data-name="Path 12487" d="M580.93-349.584c0,2.84-2.168,5.21-5.681,5.21a5.978,5.978,0,0,1-6.185-6.067,5.961,5.961,0,0,1,6.117-6.067,5.8,5.8,0,0,1,5.059,2.84l-.79.471a4.781,4.781,0,0,0-4.269-2.454,5.084,5.084,0,0,0-5.227,5.21,5.1,5.1,0,0,0,5.294,5.21c2.857,0,4.588-1.765,4.773-3.966h-4.992v-.84h5.9Z" transform="translate(-199.974 -85.488)" fill="#141414"/>
    <path id="Path_12488" data-name="Path 12488" d="M574.675-344.763a6.174,6.174,0,0,1-6.371-6.253,6.141,6.141,0,0,1,6.3-6.253,5.993,5.993,0,0,1,5.22,2.934l.091.159-1.116.665-.091-.174a4.618,4.618,0,0,0-4.1-2.354,4.922,4.922,0,0,0-5.041,5.024,4.9,4.9,0,0,0,5.108,5.024c2.477,0,4.286-1.436,4.566-3.594H574.27V-350.8h6.271v.64C580.541-347.032,578.074-344.763,574.675-344.763Zm-.067-12.134a5.777,5.777,0,0,0-5.931,5.881,5.81,5.81,0,0,0,6,5.881c3.184,0,5.495-2.113,5.495-5.024v-.267h-5.527v.468h5.008l-.017.2c-.208,2.474-2.2,4.137-4.958,4.137a5.26,5.26,0,0,1-5.48-5.4,5.286,5.286,0,0,1,5.413-5.4,5.021,5.021,0,0,1,4.339,2.382l.465-.277A5.636,5.636,0,0,0,574.607-356.9Z" transform="translate(-199.399 -84.914)" fill="#141414"/>
    <path id="Path_12489" data-name="Path 12489" d="M651.872-352.105a2.692,2.692,0,0,0-2.773-2.807H645.99v5.6H649.1a2.688,2.688,0,0,0,2.773-2.79m.891,0a3.551,3.551,0,0,1-3.664,3.63H645.99v4.487H645.1v-11.764h4a3.556,3.556,0,0,1,3.664,3.647" transform="translate(-257.42 -86.06)" fill="#141414"/>
    <path id="Path_12490" data-name="Path 12490" d="M645.6-344.377h-1.263v-12.136h4.186a3.757,3.757,0,0,1,3.85,3.833,3.749,3.749,0,0,1-3.85,3.816H645.6Zm-.891-.372h.519v-4.487h3.3A3.348,3.348,0,0,0,652-352.68a3.356,3.356,0,0,0-3.478-3.461H644.71Zm3.814-4.955h-3.3v-5.969h3.3a2.878,2.878,0,0,1,2.959,2.993A2.87,2.87,0,0,1,648.524-349.7Zm-2.923-.372h2.923a2.51,2.51,0,0,0,2.587-2.6,2.518,2.518,0,0,0-2.587-2.621H645.6Z" transform="translate(-256.846 -85.485)" fill="#141414"/>
    <path id="Path_12491" data-name="Path 12491" d="M683.355-347.818l-2.621-6.84-2.622,6.84Zm.319.84h-5.9l-1.143,2.992h-.941l4.571-11.764h.941l4.554,11.764h-.941Z" transform="translate(-280.534 -86.061)" fill="#141414"/>
    <path id="Path_12492" data-name="Path 12492" d="M685.19-344.376h-1.341l-1.143-2.992h-5.643l-1.143,2.992H674.58l4.716-12.136h1.2Zm-1.084-.372h.542l-4.41-11.392h-.687l-4.427,11.392h.541l1.143-2.992h6.155Zm-1.32-3.46H677l2.892-7.546Zm-5.243-.372h4.7l-2.351-6.134Z" transform="translate(-279.694 -85.485)" fill="#141414"/>
    <path id="Path_12493" data-name="Path 12493" d="M724.774-349.651h3.748a2.607,2.607,0,0,0,2.588-2.622,2.611,2.611,0,0,0-2.588-2.639h-3.748Zm3.714.84h-3.714v4.823h-.891v-11.764h4.638A3.486,3.486,0,0,1,732-352.273a3.475,3.475,0,0,1-2.588,3.345l2.924,4.941h-1.025Z" transform="translate(-316.944 -86.06)" fill="#141414"/>
    <path id="Path_12494" data-name="Path 12494" d="M732.089-344.376h-1.458l-2.823-4.823h-3.422v4.823h-1.263v-12.137h4.824a3.669,3.669,0,0,1,3.665,3.665,3.667,3.667,0,0,1-2.494,3.454Zm-1.245-.372h.592l-2.883-4.871.236-.064a3.3,3.3,0,0,0,2.451-3.165,3.3,3.3,0,0,0-3.293-3.293H723.5v11.392h.519v-4.823h4.007Zm-2.9-5.291h-3.933v-5.633h3.933a2.8,2.8,0,0,1,2.774,2.825A2.8,2.8,0,0,1,727.947-350.04Zm-3.562-.372h3.562a2.422,2.422,0,0,0,2.4-2.436,2.431,2.431,0,0,0-2.4-2.452h-3.562Z" transform="translate(-316.37 -85.485)" fill="#141414"/>
    <path id="Path_12495" data-name="Path 12495" d="M768.9-354.911h-3.7v10.924h-.908v-10.924h-3.7v-.84h8.3Z" transform="translate(-344.681 -86.06)" fill="#141414"/>
    <path id="Path_12496" data-name="Path 12496" d="M764.811-344.376h-1.28V-355.3h-3.7v-1.213h8.674v1.213h-3.7Zm-.908-.372h.536v-10.924h3.7v-.468h-7.93v.468h3.7Z" transform="translate(-344.106 -85.485)" fill="#141414"/>
    <path id="Path_12497" data-name="Path 12497" d="M810.738-355.752v11.764h-.79L803.008-354.1v10.117h-.891v-11.764h.773l6.958,10.117v-10.117Z" transform="translate(-376.052 -86.06)" fill="#141414"/>
    <path id="Path_12498" data-name="Path 12498" d="M810.349-344.376h-1.074l-.056-.081-6.6-9.622v9.7h-1.263v-12.137h1.057l6.674,9.7v-9.7h1.263Zm-.878-.372h.506v-11.392h-.519v10.53l-7.241-10.53h-.489v11.392h.519V-355.28Z" transform="translate(-375.477 -85.485)" fill="#141414"/>
    <path id="Path_12499" data-name="Path 12499" d="M856.12-344.828v.84h-6.773v-11.764h6.689v.84h-5.8v4.571h5.378v.84h-5.378v4.672Z" transform="translate(-411.737 -86.06)" fill="#141414"/>
    <path id="Path_12500" data-name="Path 12500" d="M855.732-344.376h-7.145v-12.137h7.06v1.213h-5.8v4.2h5.378v1.213h-5.378v4.3h5.882Zm-6.773-.372h6.4v-.468h-5.882v-5.044h5.378v-.468h-5.378v-4.943h5.8v-.468h-6.317Z" transform="translate(-411.162 -85.485)" fill="#141414"/>
    <path id="Path_12501" data-name="Path 12501" d="M886.88-349.651h3.748a2.608,2.608,0,0,0,2.588-2.622,2.611,2.611,0,0,0-2.588-2.639H886.88Zm3.714.84H886.88v4.823h-.891v-11.764h4.639a3.486,3.486,0,0,1,3.479,3.479,3.474,3.474,0,0,1-2.588,3.345l2.925,4.941h-1.025Z" transform="translate(-439.421 -86.06)" fill="#141414"/>
    <path id="Path_12502" data-name="Path 12502" d="M894.194-344.376h-1.458l-2.823-4.823h-3.421v4.823h-1.263v-12.137h4.824a3.669,3.669,0,0,1,3.665,3.665,3.667,3.667,0,0,1-2.494,3.454Zm-1.245-.372h.592l-2.883-4.871.236-.064a3.3,3.3,0,0,0,2.451-3.165,3.3,3.3,0,0,0-3.293-3.293H885.6v11.392h.519v-4.823h4.007Zm-2.9-5.291H886.12v-5.633h3.934a2.8,2.8,0,0,1,2.774,2.825A2.794,2.794,0,0,1,890.053-350.04Zm-3.562-.372h3.562a2.422,2.422,0,0,0,2.4-2.436,2.43,2.43,0,0,0-2.4-2.452h-3.562Z" transform="translate(-438.846 -85.485)" fill="#141414"/>
    <path id="Path_12503" data-name="Path 12503" d="M924.556-347.146l.773-.454a3.339,3.339,0,0,0,3.53,2.37c1.966,0,2.958-1.008,2.958-2.353,0-1.412-1.244-1.95-3.042-2.521-1.966-.639-3.731-1.193-3.731-3.244,0-1.933,1.563-3.159,3.563-3.159a3.95,3.95,0,0,1,3.781,2.471l-.756.42a3.092,3.092,0,0,0-3.025-2.033c-1.63,0-2.655.958-2.655,2.269,0,1.411,1.193,1.848,2.874,2.4,2.084.689,3.9,1.345,3.9,3.378,0,1.95-1.529,3.227-3.865,3.227a4.212,4.212,0,0,1-4.3-2.773" transform="translate(-468.559 -85.489)" fill="#141414"/>
    <path id="Path_12504" data-name="Path 12504" d="M928.17-344.763a4.38,4.38,0,0,1-4.479-2.9l-.046-.142,1.108-.651.066.231a3.179,3.179,0,0,0,3.351,2.234c1.736,0,2.772-.81,2.772-2.167,0-1.206-.939-1.717-2.912-2.344l-.053-.017c-1.958-.636-3.808-1.236-3.808-3.4,0-1.97,1.542-3.346,3.749-3.346a4.151,4.151,0,0,1,3.953,2.585l.065.154-1.085.6-.079-.193a2.907,2.907,0,0,0-2.853-1.918c-1.477,0-2.469.837-2.469,2.083s1.044,1.665,2.746,2.226c1.98.655,4.027,1.332,4.027,3.555C932.221-346.134,930.593-344.763,928.17-344.763Zm-4.077-2.876a4.049,4.049,0,0,0,4.077,2.5c2.235,0,3.679-1.193,3.679-3.04,0-1.818-1.493-2.448-3.771-3.2-1.61-.531-3-.991-3-2.58a2.553,2.553,0,0,1,2.841-2.455,3.268,3.268,0,0,1,3.113,1.958l.43-.239a3.738,3.738,0,0,0-3.542-2.2c-1.988,0-3.377,1.223-3.377,2.973,0,1.9,1.645,2.431,3.551,3.05l.052.017c1.8.571,3.17,1.132,3.17,2.7s-1.2,2.539-3.144,2.539a3.552,3.552,0,0,1-3.636-2.278Z" transform="translate(-467.871 -84.914)" fill="#141414"/>
    <path id="Path_12505" data-name="Path 12505" d="M975.181-355.752v11.764h-.891v-5.63h-6.84v5.63h-.891v-11.764h.891v5.294h6.84v-5.294Z" transform="translate(-500.294 -86.06)" fill="#141414"/>
    <path id="Path_12506" data-name="Path 12506" d="M974.793-344.376H973.53v-5.63h-6.468v5.63H965.8v-12.137h1.263v5.294h6.468v-5.294h1.263Zm-.891-.372h.519v-11.392H973.9v5.294H966.69v-5.294h-.519v11.392h.519v-5.63H973.9Z" transform="translate(-499.72 -85.485)" fill="#141414"/>
    <rect id="Rectangle_841" data-name="Rectangle 841" width="0.891" height="11.764" transform="translate(477.811 -441.811)" fill="#141414"/>
    <path id="Path_12507" data-name="Path 12507" d="M1014.291-344.376h-1.263v-12.136h1.263Zm-.891-.372h.519V-356.14h-.519Z" transform="translate(-535.403 -85.485)" fill="#141414"/>
    <path id="Path_12508" data-name="Path 12508" d="M1036.167-352.105a2.693,2.693,0,0,0-2.773-2.807h-3.109v5.6h3.109a2.688,2.688,0,0,0,2.773-2.79m.891,0a3.552,3.552,0,0,1-3.664,3.63h-3.109v4.487h-.891v-11.764h4a3.556,3.556,0,0,1,3.664,3.647" transform="translate(-547.768 -86.06)" fill="#141414"/>
    <path id="Path_12509" data-name="Path 12509" d="M1029.9-344.377h-1.263v-12.136h4.186a3.757,3.757,0,0,1,3.85,3.833,3.749,3.749,0,0,1-3.85,3.816H1029.9Zm-.891-.372h.519v-4.487h3.3a3.347,3.347,0,0,0,3.478-3.444,3.356,3.356,0,0,0-3.478-3.461H1029Zm3.814-4.955h-3.3v-5.969h3.3a2.878,2.878,0,0,1,2.959,2.993A2.87,2.87,0,0,1,1032.819-349.7Zm-2.923-.372h2.923a2.51,2.51,0,0,0,2.587-2.6,2.518,2.518,0,0,0-2.587-2.621H1029.9Z" transform="translate(-547.193 -85.485)" fill="#141414"/>
    <path id="Path_12510" data-name="Path 12510" d="M1084.658-344.375a1.016,1.016,0,0,1-.176-.015,1.56,1.56,0,0,1-.614-.3,29.651,29.651,0,0,1-4.007-3.379,8.613,8.613,0,0,1-2.229-3.242,3.8,3.8,0,0,1,.781-3.88,3.586,3.586,0,0,1,3.5-.645h0a5.954,5.954,0,0,1,2.1,1.329c.14.12.283.243.43.364a4.1,4.1,0,0,1,3.587-2.371,3.971,3.971,0,0,1,3.7,2.959,4.974,4.974,0,0,1-.606,3.562,11.611,11.611,0,0,1-2.275,2.719,18.975,18.975,0,0,1-3.331,2.6A1.718,1.718,0,0,1,1084.658-344.375Zm-.7-1,.266.189a1.032,1.032,0,0,0,.369.195.951.951,0,0,0,.6-.194.311.311,0,0,1-.078-.033.306.306,0,0,1-.146-.3,1.366,1.366,0,0,1-.949.071Zm2.083-.448q-.127.136-.258.269.2-.135.4-.275A.311.311,0,0,1,1086.036-345.826Zm-4.541-1.531q.866.778,1.792,1.485l0-.026a1.9,1.9,0,0,1-.37-.625.307.307,0,0,1-.235-.039.306.306,0,0,1-.13-.345c.044-.15.09-.3.138-.449a2.166,2.166,0,0,1-.547.21.306.306,0,0,1-.314-.113.306.306,0,0,1-.024-.333,11.276,11.276,0,0,1,1.268-1.768q.026-.153.047-.307a5.5,5.5,0,0,1-.558.566A17.111,17.111,0,0,1,1081.495-347.357Zm2.923,1.349h0Zm-.46-1.48a6.919,6.919,0,0,0-.08,1.189,7.515,7.515,0,0,0,.594-1.084,8.114,8.114,0,0,1,.191-.935Q1084.328-347.888,1083.958-347.487Zm1.911.836-.027.128.1-.114.066-.2Q1085.938-346.743,1085.869-346.651Zm-.8-.574a6.208,6.208,0,0,0-.052.665c.054-.065.107-.131.16-.2.035-.08.071-.16.109-.237.015-.031.031-.062.047-.092q.041-.213.077-.428a.307.307,0,0,1-.019-.257l.047-.126a.539.539,0,0,0-.036-.181C1085.3-347.789,1085.19-347.5,1085.068-347.225Zm2.118-.014-.127.177a6.837,6.837,0,0,0,1.068-.995l-.011-.01A12.249,12.249,0,0,1,1087.186-347.239Zm-6.635-1q.187.184.378.365.051-.262.105-.524l0,0a.306.306,0,0,1-.094-.306l.029-.109Q1080.769-348.527,1080.551-348.243Zm6.425-2-.709,1.885q.2-.344.38-.7Q1086.813-349.655,1086.976-350.247Zm-7.272,1.126q.146.163.294.317.077-.423.172-.841C1080.022-349.464,1079.868-349.289,1079.7-349.121Zm5.941-2.505a14.918,14.918,0,0,0-.929,1.691,10.12,10.12,0,0,0-.438,1.115,12.77,12.77,0,0,0,1.3-2.1q.042-.164.087-.328C1085.657-351.374,1085.651-351.5,1085.645-351.627Zm1.725,2.475-.042.142c.14-.084.277-.162.41-.235a.306.306,0,0,1,.342.032,7.911,7.911,0,0,1,.934-2.856l-.01-.046a.307.307,0,0,1-.14-.259q0-.133.012-.265a5.284,5.284,0,0,1-.125-.661l-.1.087a15.813,15.813,0,0,1-1.01,3.456Q1087.51-349.449,1087.369-349.151Zm-5.295-1.019q-.108.42-.208.841.1-.074.2-.155a16.964,16.964,0,0,0,1.062-2.495c-.005-.043-.011-.085-.016-.128A11.778,11.778,0,0,0,1082.075-350.171Zm7.76-4.536a.307.307,0,0,1,.219.092,3.138,3.138,0,0,1,.921,1.381,3.143,3.143,0,0,1-.253,1.8l-.658,1.842c-.022.061-.045.124-.068.188a7.241,7.241,0,0,0,.584-.883,4.369,4.369,0,0,0,.547-3.12,3.342,3.342,0,0,0-3.11-2.492,2.846,2.846,0,0,0-1.442.348.781.781,0,0,1,.281.036.58.58,0,0,1,.245.154.3.3,0,0,1,.122.088l.014.017a1.8,1.8,0,0,1,.2-.122q.111-.143.23-.282a.306.306,0,0,1,.367-.074.307.307,0,0,1,.161.2h.016a1.32,1.32,0,0,1,.446.124.314.314,0,0,1,.064.033,1.8,1.8,0,0,1,.776.923c.028-.042.057-.084.087-.126a.306.306,0,0,1,.225-.126Zm-11.161,4.213a7.359,7.359,0,0,0,.506.745c.039-.4.084-.791.142-1.181C1079.108-350.778,1078.89-350.634,1078.674-350.494Zm2.379-.134q-.124.435-.229.875c.174-.3.335-.607.486-.919a.3.3,0,0,1-.227.051Zm5.229.136q0,.183-.007.366l.3-.786q-.129.18-.253.365Zm-2.476-.122q-.006.2-.019.4.077-.094.152-.189.228-.447.478-.884c.2-.5.414-1.007.65-1.5q-.152.187-.3.379A17.908,17.908,0,0,1,1083.806-350.614Zm-3.775-.865c-.077.407-.137.828-.186,1.257a10.006,10.006,0,0,0,.85-1.328l.008-.024a4.122,4.122,0,0,1,.048-.617A6.555,6.555,0,0,1,1080.031-351.479Zm9.627-.483c.015.085.027.171.036.258a3.322,3.322,0,0,1,.009.552,6.675,6.675,0,0,0,.159-1.131Q1089.755-352.125,1089.658-351.962Zm-11.482.342c.012.041.024.082.037.122s.029.087.045.129l.265-.673-.175.288A.305.305,0,0,1,1078.176-351.62Zm1.1-.66-.346.877c.187-.132.371-.268.548-.412.056-.265.12-.525.194-.779-.056.064-.11.13-.162.2A.307.307,0,0,1,1079.276-352.28Zm3.391-2.506a.308.308,0,0,1-.009.183,30.285,30.285,0,0,1-1.148,2.81l.522-.576q.159-.418.307-.838.155-.457.319-.909a.306.306,0,0,1,.39-.183.306.306,0,0,1,.186.389l-.144.414a.3.3,0,0,1,.193-.015.309.309,0,0,1,.087.036q.148-.179.3-.351a.311.311,0,0,1,.1-.073l-.162-.139A9.907,9.907,0,0,0,1082.667-354.786Zm1.531,1.239q-.137.625-.321,1.241.182-.223.374-.438a15.155,15.155,0,0,1,1.225-1.423,2.18,2.18,0,0,1,.135-.576,7.341,7.341,0,0,0-.816,1.212.307.307,0,0,1-.2.15.306.306,0,0,1-.248-.055Zm-3.555.092a6.41,6.41,0,0,0-.327.83h0a4.1,4.1,0,0,0,.575-.889c0-.031-.006-.061-.01-.091Q1080.761-353.534,1080.643-353.455Zm7.446-1.472a13.418,13.418,0,0,1-.85,2.234q.256-.276.528-.538.216-.845.422-1.688l-.034,0C1088.133-354.926,1088.111-354.927,1088.089-354.927Zm-8.857-.112.19.255a2.816,2.816,0,0,0-1.071,1.847l1.425-2.341A2.6,2.6,0,0,0,1079.232-355.039Zm10.41,1.68c-.009.132-.024.263-.044.391.1-.137.212-.271.325-.4a.305.305,0,0,1,.3-.1,2.832,2.832,0,0,0-.337-.441A3.244,3.244,0,0,0,1089.642-353.359Zm-3.549-.053c0,.008,0,.015,0,.023q.134-.189.269-.376a.34.34,0,0,1-.028-.034C1086.252-353.672,1086.171-353.543,1086.093-353.412Zm-5.712-1.985a.306.306,0,0,1,.019.265l-.617,1.566q.188-.162.39-.307a5.006,5.006,0,0,1,1.114-1.465l.019-.016A3.348,3.348,0,0,0,1080.381-355.4Zm8.433.936q-.016.17-.035.34l.1-.08a.309.309,0,0,1,.049-.031A1.422,1.422,0,0,0,1088.814-354.461Zm-7.043-.773a.312.312,0,0,1,.024.09,3.224,3.224,0,0,1-.049.991q.17-.353.354-.7a.3.3,0,0,1,.2-.154A3.482,3.482,0,0,0,1081.771-355.234Z" transform="translate(-584.052 -85.486)" fill="#64d281"/>
  </g>
</svg>
